# xmcd
#
# Track frame offsets: 
#        150
#        13352
#        32905
#        51450
#        71132
#        89990
#        118757
#        139542
#        159587
#        178795
#
# Disc length: 2754 seconds
#
# Revision: 9
# Processed by: cddbd v1.5.2PL0 Copyright (c) Steve Scherf et al.
# Submitted via: ExactAudioCopy v1.1
#
DISCID=9a0ac00a
DTITLE=平松愛理 - 7 DAYS GIRL
DYEAR=1994
DGENRE=Pop
TTITLE0=恋の証人
TTITLE1=女の生命は短くて
TTITLE2=反逆のafternoon tea
TTITLE3=君らしく
TTITLE4=明日にしましょう
TTITLE5=私の一番長い日
TTITLE6=あなたのいない休日
TTITLE7=Good Luck, my friend
TTITLE8=転ばぬ先の闇
TTITLE9=今度会える日まで
EXTD=PONY CANYON\nPCCA-00655\nJAPAN YEAR: 1994
EXTT0=
EXTT1=
EXTT2=
EXTT3=
EXTT4=
EXTT5=
EXTT6=
EXTT7=
EXTT8=
EXTT9=
PLAYORDER=
